<svg width="105" height="105" viewBox="0 0 105 105" fill="none" xmlns="http://www.w3.org/2000/svg">
<g opacity="0.5">
<path fill-rule="evenodd" clip-rule="evenodd" d="M90.6937 31.15L90.0812 30.0562C89.2911 28.7336 88.1768 27.6344 86.8437 26.8625L57.4875 9.93125C56.1584 9.16016 54.6494 8.75271 53.1125 8.75H51.8437C50.3068 8.75271 48.7979 9.16016 47.4687 9.93125L18.1125 26.9062C16.7867 27.673 15.6855 28.7742 14.9187 30.1L14.3062 31.1937C13.5352 32.523 13.1277 34.032 13.125 35.5687V69.475C13.1277 71.0119 13.5352 72.5209 14.3062 73.85L14.9187 74.9437C15.7053 76.254 16.8021 77.3509 18.1125 78.1375L47.5125 95.0687C48.835 95.8558 50.3484 96.2644 51.8875 96.25H53.1125C54.6494 96.2474 56.1584 95.84 57.4875 95.0687L86.8437 78.0937C88.1825 77.3443 89.288 76.2387 90.0375 74.9L90.6937 73.8062C91.4554 72.4732 91.8623 70.9669 91.875 69.4312V35.525C91.8723 33.9882 91.465 32.4793 90.6937 31.15ZM51.8437 17.5H53.1125L78.75 32.2875L52.5 47.425L26.25 32.2875L51.8437 17.5ZM56.875 85.3125L82.4687 70.525L83.125 69.4312V39.8562L56.875 55.0375V85.3125Z" fill="#F2F2F2"/>
</g>
</svg>
