<svg width="146" height="59" viewBox="0 0 146 59" fill="none" xmlns="http://www.w3.org/2000/svg">
<path opacity="0.5" d="M0.594 19H2.662L4.686 13.06H10.67L12.672 19H14.762L9.482 3.49H5.896L0.594 19ZM5.258 11.344L7.678 4.238L10.076 11.344H5.258ZM16.7949 19H22.9549C26.7609 19 29.1809 18.032 29.1809 14.864C29.1809 12.378 27.5749 11.058 25.2869 10.816C26.7389 10.53 28.0369 9.342 28.0369 7.274C28.0369 4.238 25.8589 3.49 22.0309 3.49L16.7949 3.49V19ZM18.7969 17.328V11.718H23.0209C25.5949 11.718 27.1789 12.29 27.1789 14.534C27.1789 16.932 25.6169 17.328 23.0209 17.328H18.7969ZM18.7969 10.134V5.118H22.1189C24.5609 5.118 26.0569 5.272 26.0569 7.626C26.0569 9.804 24.5389 10.134 22.1189 10.134H18.7969ZM31.2053 3.49V5.206H34.6813V17.284L31.2053 17.284V19L40.1373 19V17.284H36.6613V5.206L40.1373 5.206V3.49L31.2053 3.49ZM48.7051 19.242C52.3571 19.242 53.8091 17.24 54.2491 15.898V19H56.2511V11.96C56.2511 11.102 55.8111 10.662 54.8651 10.662H48.1991V12.202H54.2051C54.3151 15.656 52.5111 17.526 49.1011 17.526C45.2071 17.526 43.7551 14.776 43.7551 11.432C43.7551 7.56 45.6471 4.964 49.1891 4.964C51.8511 4.964 53.5451 6.46 53.8971 9.034H55.9211C55.4151 5.448 52.8851 3.248 49.1231 3.248C44.4371 3.248 41.7311 6.504 41.7311 11.388C41.7311 15.854 43.9971 19.242 48.7051 19.242ZM58.4944 19H60.5624L62.5864 13.06H68.5704L70.5724 19H72.6624L67.3824 3.49H63.7964L58.4944 19ZM63.1584 11.344L65.5784 4.238L67.9764 11.344H63.1584ZM74.6037 3.49V5.206H78.0797V17.284H74.6037V19H83.5357V17.284H80.0597V5.206H83.5357V3.49L74.6037 3.49ZM87.8763 19L96.2583 19V17.284L88.4923 17.284V3.49H86.4903V17.614C86.4903 18.516 86.9963 19 87.8763 19Z" fill="white"/>
<path d="M31.594 51.5858H33.662L35.686 45.6458H41.67L43.672 51.5858H45.762L40.482 36.0758H36.896L31.594 51.5858ZM36.258 43.9298L38.678 36.8238L41.076 43.9298H36.258ZM53.9883 51.8278C57.6403 51.8278 59.0923 49.8258 59.5323 48.4838V51.5858H61.5343V44.5458C61.5343 43.6878 61.0943 43.2478 60.1483 43.2478H53.4823V44.7878H59.4883C59.5983 48.2418 57.7943 50.1118 54.3843 50.1118C50.4903 50.1118 49.0383 47.3618 49.0383 44.0178C49.0383 40.1458 50.9303 37.5498 54.4723 37.5498C57.1343 37.5498 58.8283 39.0458 59.1803 41.6198H61.2043C60.6983 38.0338 58.1683 35.8338 54.4063 35.8338C49.7203 35.8338 47.0143 39.0898 47.0143 43.9738C47.0143 48.4398 49.2803 51.8278 53.9883 51.8278ZM64.7461 36.0758V51.5858H66.7481V44.8098H75.5921V51.5858H77.5941V36.0758H75.5921V43.0718H66.7481V36.0758H64.7461ZM79.762 51.5858H81.83L83.854 45.6458H89.838L91.84 51.5858H93.93L88.65 36.0758H85.064L79.762 51.5858ZM84.426 43.9298L86.846 36.8238L89.244 43.9298H84.426ZM95.8713 36.0758V37.7918H99.3473V49.8698H95.8713V51.5858H104.803V49.8698H101.327V37.7918L104.803 37.7918V36.0758L95.8713 36.0758ZM107.758 51.5858H113.918C117.724 51.5858 120.144 50.6178 120.144 47.4498C120.144 44.9638 118.538 43.6438 116.25 43.4018C117.702 43.1158 119 41.9278 119 39.8598C119 36.8238 116.822 36.0758 112.994 36.0758H107.758V51.5858ZM109.76 49.9138V44.3038L113.984 44.3038C116.558 44.3038 118.142 44.8758 118.142 47.1198C118.142 49.5178 116.58 49.9138 113.984 49.9138H109.76ZM109.76 42.7198V37.7038H113.082C115.524 37.7038 117.02 37.8578 117.02 40.2118C117.02 42.3898 115.502 42.7198 113.082 42.7198L109.76 42.7198ZM122.168 36.0758V37.7918H125.644V49.8698H122.168V51.5858L131.1 51.5858V49.8698H127.624V37.7918H131.1V36.0758H122.168ZM134.055 51.5858H144.835V49.8698H136.057V44.6558H143.735V42.9838H136.057V37.7918H144.835V36.0758H134.055V51.5858Z" fill="white"/>
</svg>
