<svg width="84" height="30" viewBox="0 0 84 30" fill="none" xmlns="http://www.w3.org/2000/svg">
<path opacity="0.5" d="M0.324 10H1.452L2.556 6.76H5.82L6.912 10H8.052L5.172 1.54H3.216L0.324 10ZM2.868 5.824L4.188 1.948L5.496 5.824H2.868ZM9.16088 10H12.5209C14.5969 10 15.9169 9.472 15.9169 7.744C15.9169 6.388 15.0409 5.668 13.7929 5.536C14.5849 5.38 15.2929 4.732 15.2929 3.604C15.2929 1.948 14.1049 1.54 12.0169 1.54L9.16088 1.54V10ZM10.2529 9.088V6.028H12.5569C13.9609 6.028 14.8249 6.34 14.8249 7.564C14.8249 8.872 13.9729 9.088 12.5569 9.088H10.2529ZM10.2529 5.164V2.428L12.0649 2.428C13.3969 2.428 14.2129 2.512 14.2129 3.796C14.2129 4.984 13.3849 5.164 12.0649 5.164H10.2529ZM17.0211 1.54V2.476H18.9171V9.064H17.0211V10H21.8931V9.064H19.9971V2.476L21.8931 2.476V1.54L17.0211 1.54ZM26.5664 10.132C28.5584 10.132 29.3504 9.04 29.5904 8.308V10H30.6824V6.16C30.6824 5.692 30.4424 5.452 29.9264 5.452H26.2904V6.292H29.5664C29.6264 8.176 28.6424 9.196 26.7824 9.196C24.6584 9.196 23.8664 7.696 23.8664 5.872C23.8664 3.76 24.8984 2.344 26.8304 2.344C28.2824 2.344 29.2064 3.16 29.3984 4.564H30.5024C30.2264 2.608 28.8464 1.408 26.7944 1.408C24.2384 1.408 22.7624 3.184 22.7624 5.848C22.7624 8.284 23.9984 10.132 26.5664 10.132ZM31.906 10H33.034L34.138 6.76H37.402L38.494 10H39.634L36.754 1.54H34.798L31.906 10ZM34.45 5.824L35.77 1.948L37.078 5.824H34.45ZM40.6929 1.54V2.476H42.5889V9.064H40.6929V10H45.5649V9.064H43.6689V2.476L45.5649 2.476V1.54L40.6929 1.54ZM47.9325 10L52.5045 10V9.064H48.2685V1.54H47.1765V9.244C47.1765 9.736 47.4525 10 47.9325 10Z" fill="white"/>
<path d="M21.324 26H22.452L23.556 22.76H26.82L27.912 26H29.052L26.172 17.54H24.216L21.324 26ZM23.868 21.824L25.188 17.948L26.496 21.824H23.868ZM33.5391 26.132C35.5311 26.132 36.3231 25.04 36.5631 24.308V26H37.6551V22.16C37.6551 21.692 37.4151 21.452 36.8991 21.452H33.2631V22.292H36.5391C36.5991 24.176 35.6151 25.196 33.7551 25.196C31.6311 25.196 30.8391 23.696 30.8391 21.872C30.8391 19.76 31.8711 18.344 33.8031 18.344C35.2551 18.344 36.1791 19.16 36.3711 20.564H37.4751C37.1991 18.608 35.8191 17.408 33.7671 17.408C31.2111 17.408 29.7351 19.184 29.7351 21.848C29.7351 24.284 30.9711 26.132 33.5391 26.132ZM39.407 17.54V26H40.499V22.304H45.323V26H46.415V17.54H45.323V21.356H40.499V17.54H39.407ZM47.5974 26H48.7254L49.8294 22.76H53.0934L54.1854 26H55.3254L52.4454 17.54H50.4894L47.5974 26ZM50.1414 21.824L51.4614 17.948L52.7694 21.824H50.1414ZM56.3843 17.54V18.476L58.2803 18.476V25.064H56.3843V26H61.2563V25.064H59.3603V18.476H61.2563V17.54H56.3843ZM62.8679 26H66.2279C68.3039 26 69.6239 25.472 69.6239 23.744C69.6239 22.388 68.7479 21.668 67.4999 21.536C68.2919 21.38 68.9999 20.732 68.9999 19.604C68.9999 17.948 67.8119 17.54 65.7239 17.54H62.8679V26ZM63.9599 25.088V22.028H66.2639C67.6679 22.028 68.5319 22.34 68.5319 23.564C68.5319 24.872 67.6799 25.088 66.2639 25.088H63.9599ZM63.9599 21.164V18.428H65.7719C67.1039 18.428 67.9199 18.512 67.9199 19.796C67.9199 20.984 67.0919 21.164 65.7719 21.164H63.9599ZM70.7281 17.54V18.476H72.6241V25.064H70.7281V26H75.6001V25.064H73.7041V18.476H75.6001V17.54H70.7281ZM77.2117 26H83.0917V25.064H78.3037V22.22H82.4917V21.308H78.3037V18.476H83.0917V17.54H77.2117V26Z" fill="white"/>
</svg>
