<svg width="223" height="30" viewBox="0 0 223 30" fill="none" xmlns="http://www.w3.org/2000/svg">
<path d="M97.7031 10H98.7951V7.144H100.163C102.419 7.144 103.691 6.496 103.691 4.336C103.691 2.188 102.419 1.54 100.163 1.54H97.7031V10ZM98.7951 6.208V2.476H100.199C101.603 2.476 102.611 2.764 102.611 4.336C102.611 5.92 101.603 6.208 100.199 6.208H98.7951ZM105.145 10H106.237V6.652H110.509V10H111.589V6.88C111.589 6.388 111.397 5.992 110.725 5.992H110.101C111.001 5.764 111.577 5.128 111.577 3.856C111.577 1.984 110.257 1.54 108.277 1.54H105.145V10ZM106.237 5.716V2.476H108.277C109.645 2.476 110.497 2.596 110.497 4.096C110.497 5.56 109.645 5.716 108.277 5.716H106.237ZM113.086 5.764C113.086 8.248 114.574 10.132 117.082 10.132C119.59 10.132 121.066 8.248 121.066 5.764C121.066 3.292 119.59 1.408 117.082 1.408C114.574 1.408 113.086 3.292 113.086 5.764ZM114.19 5.764C114.19 3.784 115.138 2.356 117.082 2.356C119.026 2.356 119.974 3.784 119.974 5.764C119.974 7.756 119.026 9.184 117.082 9.184C115.138 9.184 114.19 7.756 114.19 5.764ZM122.629 10H125.353C127.441 10 129.637 9.412 129.637 5.764C129.637 2.128 127.441 1.54 125.353 1.54H122.629V10ZM123.721 9.064V2.476H125.353C126.841 2.476 128.545 2.716 128.545 5.764C128.545 8.824 126.853 9.064 125.353 9.064H123.721ZM130.979 6.856C130.979 8.968 132.047 10.132 134.375 10.132C136.703 10.132 137.795 8.968 137.795 6.856V1.54H136.703V6.628C136.703 8.32 136.139 9.184 134.375 9.184C132.611 9.184 132.071 8.32 132.071 6.628V1.54H130.979V6.856ZM143.133 10.132C145.317 10.132 146.745 8.836 146.997 6.724H145.905C145.713 8.272 144.741 9.184 143.133 9.184C141.225 9.184 140.229 7.78 140.229 5.764C140.229 3.76 141.225 2.356 143.133 2.356C144.741 2.356 145.713 3.256 145.905 4.804H146.997C146.745 2.704 145.317 1.408 143.133 1.408C140.613 1.408 139.125 3.292 139.125 5.764C139.125 8.248 140.613 10.132 143.133 10.132ZM147.663 1.54V2.476H150.579V10H151.671V2.476H154.575V1.54H147.663ZM159.871 10H162.595C164.683 10 166.879 9.412 166.879 5.764C166.879 2.128 164.683 1.54 162.595 1.54H159.871V10ZM160.963 9.064V2.476H162.595C164.083 2.476 165.787 2.716 165.787 5.764C165.787 8.824 164.095 9.064 162.595 9.064H160.963ZM168.437 10H174.317V9.064H169.529V6.22H173.717V5.308H169.529V2.476H174.317V1.54H168.437V10ZM182.308 7.744C182.308 6.628 181.636 5.836 180.268 5.488L177.928 4.9C177.004 4.66 176.644 4.204 176.644 3.604C176.644 2.74 177.304 2.32 178.54 2.32C180.136 2.32 180.94 2.992 180.94 4.336H182.056C182.056 2.512 180.844 1.408 178.54 1.408C176.596 1.408 175.54 2.188 175.54 3.652C175.54 4.66 176.092 5.428 177.424 5.776L179.788 6.388C180.772 6.64 181.204 7.144 181.204 7.804C181.204 8.74 180.556 9.208 179.092 9.208C177.22 9.208 176.248 8.44 176.248 6.82H175.144C175.144 8.944 176.5 10.132 179.068 10.132C181.324 10.132 182.308 9.256 182.308 7.744ZM183.329 1.54V2.476H185.225V9.064H183.329V10H188.201V9.064H186.305V2.476H188.201V1.54H183.329ZM192.874 10.132C194.866 10.132 195.658 9.04 195.898 8.308V10H196.99V6.16C196.99 5.692 196.75 5.452 196.234 5.452H192.598V6.292H195.874C195.934 8.176 194.95 9.196 193.09 9.196C190.966 9.196 190.174 7.696 190.174 5.872C190.174 3.76 191.206 2.344 193.138 2.344C194.59 2.344 195.514 3.16 195.706 4.564H196.81C196.534 2.608 195.154 1.408 193.102 1.408C190.546 1.408 189.07 3.184 189.07 5.848C189.07 8.284 190.306 10.132 192.874 10.132ZM198.742 10H199.834V1.924L204.142 10H206.158V1.54H205.078V9.616L200.758 1.54H198.742V10ZM207.883 10H213.763V9.064H208.975V6.22H213.163V5.308H208.975V2.476H213.763V1.54H207.883V10ZM215.207 10H216.299V6.652H220.571V10H221.651V6.88C221.651 6.388 221.459 5.992 220.787 5.992H220.163C221.063 5.764 221.639 5.128 221.639 3.856C221.639 1.984 220.319 1.54 218.339 1.54H215.207V10ZM216.299 5.716V2.476H218.339C219.707 2.476 220.559 2.596 220.559 4.096C220.559 5.56 219.707 5.716 218.339 5.716H216.299Z" fill="white"/>
<path opacity="0.5" d="M0.864 26H4.224C6.3 26 7.62 25.472 7.62 23.744C7.62 22.388 6.744 21.668 5.496 21.536C6.288 21.38 6.996 20.732 6.996 19.604C6.996 17.948 5.808 17.54 3.72 17.54H0.864V26ZM1.956 25.088V22.028H4.26C5.664 22.028 6.528 22.34 6.528 23.564C6.528 24.872 5.676 25.088 4.26 25.088H1.956ZM1.956 21.164V18.428H3.768C5.1 18.428 5.916 18.512 5.916 19.796C5.916 20.984 5.088 21.164 3.768 21.164H1.956ZM8.40994 26H9.53794L10.6419 22.76H13.9059L14.9979 26H16.1379L13.2579 17.54H11.3019L8.40994 26ZM10.9539 21.824L12.2739 17.948L13.5819 21.824H10.9539ZM23.9808 23.744C23.9808 22.628 23.3088 21.836 21.9408 21.488L19.6008 20.9C18.6768 20.66 18.3168 20.204 18.3168 19.604C18.3168 18.74 18.9768 18.32 20.2128 18.32C21.8088 18.32 22.6128 18.992 22.6128 20.336H23.7288C23.7288 18.512 22.5168 17.408 20.2128 17.408C18.2688 17.408 17.2128 18.188 17.2128 19.652C17.2128 20.66 17.7648 21.428 19.0968 21.776L21.4608 22.388C22.4448 22.64 22.8768 23.144 22.8768 23.804C22.8768 24.74 22.2288 25.208 20.7648 25.208C18.8928 25.208 17.9208 24.44 17.9208 22.82H16.8168C16.8168 24.944 18.1728 26.132 20.7408 26.132C22.9968 26.132 23.9808 25.256 23.9808 23.744ZM25.3445 26H31.2245V25.064H26.4365V22.22H30.6245V21.308H26.4365V18.476H31.2245V17.54H25.3445V26ZM32.6687 26H35.3927C37.4807 26 39.6767 25.412 39.6767 21.764C39.6767 18.128 37.4807 17.54 35.3927 17.54H32.6687V26ZM33.7607 25.064V18.476H35.3927C36.8807 18.476 38.5847 18.716 38.5847 21.764C38.5847 24.824 36.8927 25.064 35.3927 25.064H33.7607ZM45.0289 17.54V18.476H46.9249V25.064H45.0289V26H49.9009V25.064H48.0049V18.476H49.9009V17.54H45.0289ZM51.5124 26H52.6044V17.924L56.9124 26H58.9284V17.54H57.8484V25.616L53.5284 17.54H51.5124V26ZM64.2188 17.54V18.476H67.1348V26H68.2268V18.476H71.1308V17.54H64.2188ZM72.407 17.54V26H73.499V22.304H78.323V26H79.415V17.54H78.323V21.356H73.499V17.54H72.407ZM81.1374 26H87.0174V25.064H82.2294V22.22H86.4174V21.308H82.2294V18.476H87.0174V17.54H81.1374V26ZM92.2063 22.856C92.2063 24.968 93.2743 26.132 95.6023 26.132C97.9303 26.132 99.0223 24.968 99.0223 22.856V17.54H97.9303V22.628C97.9303 24.32 97.3663 25.184 95.6023 25.184C93.8383 25.184 93.2983 24.32 93.2983 22.628V17.54H92.2063V22.856ZM100.637 26H101.729V17.924L106.037 26H108.053V17.54H106.973V25.616L102.653 17.54H100.637V26ZM109.658 17.54V18.476H111.554V25.064H109.658V26H114.53V25.064H112.634V18.476H114.53V17.54H109.658ZM115.77 17.54V18.476H118.686V26H119.778V18.476H122.682V17.54H115.77ZM123.958 26H129.838V25.064H125.05V22.22H129.238V21.308H125.05V18.476H129.838V17.54H123.958V26ZM131.282 26H134.006C136.094 26 138.29 25.412 138.29 21.764C138.29 18.128 136.094 17.54 134.006 17.54H131.282V26ZM132.374 25.064V18.476H134.006C135.494 18.476 137.198 18.716 137.198 21.764C137.198 24.824 135.506 25.064 134.006 25.064H132.374ZM143.774 26H144.866V22.172L148.934 26H150.458L145.862 21.668L150.422 17.54H148.97L144.866 21.272V17.54H143.774V26ZM151.576 17.54V18.476H153.472V25.064H151.576V26H156.448V25.064H154.552V18.476H156.448V17.54H151.576ZM158.059 26H159.151V17.924L163.459 26H165.475V17.54H164.395V25.616L160.075 17.54H158.059V26ZM170.836 26.132C172.828 26.132 173.62 25.04 173.86 24.308V26H174.952V22.16C174.952 21.692 174.712 21.452 174.196 21.452H170.56V22.292H173.836C173.896 24.176 172.912 25.196 171.052 25.196C168.928 25.196 168.136 23.696 168.136 21.872C168.136 19.76 169.168 18.344 171.1 18.344C172.552 18.344 173.476 19.16 173.668 20.564H174.772C174.496 18.608 173.116 17.408 171.064 17.408C168.508 17.408 167.032 19.184 167.032 21.848C167.032 24.284 168.268 26.132 170.836 26.132ZM176.704 26H179.428C181.516 26 183.712 25.412 183.712 21.764C183.712 18.128 181.516 17.54 179.428 17.54H176.704V26ZM177.796 25.064V18.476H179.428C180.916 18.476 182.62 18.716 182.62 21.764C182.62 24.824 180.928 25.064 179.428 25.064H177.796ZM185.196 21.764C185.196 24.248 186.684 26.132 189.192 26.132C191.7 26.132 193.176 24.248 193.176 21.764C193.176 19.292 191.7 17.408 189.192 17.408C186.684 17.408 185.196 19.292 185.196 21.764ZM186.3 21.764C186.3 19.784 187.248 18.356 189.192 18.356C191.136 18.356 192.084 19.784 192.084 21.764C192.084 23.756 191.136 25.184 189.192 25.184C187.248 25.184 186.3 23.756 186.3 21.764ZM194.739 26H195.831V17.984L198.447 26H200.199L202.803 17.984V26H203.895V17.54H201.903L199.335 25.604L196.767 17.54H194.739V26Z" fill="white"/>
</svg>
