<svg width="446" height="60" viewBox="0 0 446 60" fill="none" xmlns="http://www.w3.org/2000/svg">
<path d="M216.584 19H218.586V13.764H221.094C225.23 13.764 227.562 12.576 227.562 8.616C227.562 4.678 225.23 3.49 221.094 3.49H216.584V19ZM218.586 12.048V5.206H221.16C223.734 5.206 225.582 5.734 225.582 8.616C225.582 11.52 223.734 12.048 221.16 12.048H218.586ZM230.227 19H232.229V12.862H240.061V19H242.041V13.28C242.041 12.378 241.689 11.652 240.457 11.652H239.313C240.963 11.234 242.019 10.068 242.019 7.736C242.019 4.304 239.599 3.49 235.969 3.49H230.227V19ZM232.229 11.146V5.206H235.969C238.477 5.206 240.039 5.426 240.039 8.176C240.039 10.86 238.477 11.146 235.969 11.146H232.229ZM244.786 11.234C244.786 15.788 247.514 19.242 252.112 19.242C256.71 19.242 259.416 15.788 259.416 11.234C259.416 6.702 256.71 3.248 252.112 3.248C247.514 3.248 244.786 6.702 244.786 11.234ZM246.81 11.234C246.81 7.604 248.548 4.986 252.112 4.986C255.676 4.986 257.414 7.604 257.414 11.234C257.414 14.886 255.676 17.504 252.112 17.504C248.548 17.504 246.81 14.886 246.81 11.234ZM262.281 19H267.275C271.103 19 275.129 17.922 275.129 11.234C275.129 4.568 271.103 3.49 267.275 3.49H262.281V19ZM264.283 17.284V5.206H267.275C270.003 5.206 273.127 5.646 273.127 11.234C273.127 16.844 270.025 17.284 267.275 17.284H264.283ZM277.59 13.236C277.59 17.108 279.548 19.242 283.816 19.242C288.084 19.242 290.086 17.108 290.086 13.236V3.49H288.084V12.818C288.084 15.92 287.05 17.504 283.816 17.504C280.582 17.504 279.592 15.92 279.592 12.818V3.49H277.59V13.236ZM299.872 19.242C303.876 19.242 306.494 16.866 306.956 12.994H304.954C304.602 15.832 302.82 17.504 299.872 17.504C296.374 17.504 294.548 14.93 294.548 11.234C294.548 7.56 296.374 4.986 299.872 4.986C302.82 4.986 304.602 6.636 304.954 9.474H306.956C306.494 5.624 303.876 3.248 299.872 3.248C295.252 3.248 292.524 6.702 292.524 11.234C292.524 15.788 295.252 19.242 299.872 19.242ZM308.178 3.49V5.206H313.524V19H315.526V5.206H320.85V3.49H308.178ZM330.559 19H335.553C339.381 19 343.407 17.922 343.407 11.234C343.407 4.568 339.381 3.49 335.553 3.49H330.559V19ZM332.561 17.284V5.206H335.553C338.281 5.206 341.405 5.646 341.405 11.234C341.405 16.844 338.303 17.284 335.553 17.284H332.561ZM346.264 19H357.044V17.284H348.266V12.07H355.944V10.398H348.266V5.206H357.044V3.49H346.264V19ZM371.693 14.864C371.693 12.818 370.461 11.366 367.953 10.728L363.663 9.65C361.969 9.21 361.309 8.374 361.309 7.274C361.309 5.69 362.519 4.92 364.785 4.92C367.711 4.92 369.185 6.152 369.185 8.616H371.231C371.231 5.272 369.009 3.248 364.785 3.248C361.221 3.248 359.285 4.678 359.285 7.362C359.285 9.21 360.297 10.618 362.739 11.256L367.073 12.378C368.877 12.84 369.669 13.764 369.669 14.974C369.669 16.69 368.481 17.548 365.797 17.548C362.365 17.548 360.583 16.14 360.583 13.17H358.559C358.559 17.064 361.045 19.242 365.753 19.242C369.889 19.242 371.693 17.636 371.693 14.864ZM373.565 3.49V5.206H377.041V17.284H373.565V19H382.497V17.284H379.021V5.206H382.497V3.49H373.565ZM391.064 19.242C394.716 19.242 396.168 17.24 396.608 15.898V19H398.61V11.96C398.61 11.102 398.17 10.662 397.224 10.662H390.558V12.202H396.564C396.674 15.656 394.87 17.526 391.46 17.526C387.566 17.526 386.114 14.776 386.114 11.432C386.114 7.56 388.006 4.964 391.548 4.964C394.21 4.964 395.904 6.46 396.256 9.034H398.28C397.774 5.448 395.244 3.248 391.482 3.248C386.796 3.248 384.09 6.504 384.09 11.388C384.09 15.854 386.356 19.242 391.064 19.242ZM401.822 19H403.824V4.194L411.722 19H415.418V3.49H413.438V18.296L405.518 3.49H401.822V19ZM418.58 19H429.36V17.284H420.582V12.07H428.26V10.398H420.582V5.206H429.36V3.49H418.58V19ZM432.008 19H434.01V12.862H441.842V19H443.822V13.28C443.822 12.378 443.47 11.652 442.238 11.652H441.094C442.744 11.234 443.8 10.068 443.8 7.736C443.8 4.304 441.38 3.49 437.75 3.49H432.008V19ZM434.01 11.146V5.206H437.75C440.258 5.206 441.82 5.426 441.82 8.176C441.82 10.86 440.258 11.146 437.75 11.146H434.01Z" fill="white"/>
<path opacity="0.5" d="M1.584 52H7.744C11.55 52 13.97 51.032 13.97 47.864C13.97 45.378 12.364 44.058 10.076 43.816C11.528 43.53 12.826 42.342 12.826 40.274C12.826 37.238 10.648 36.49 6.82 36.49H1.584V52ZM3.586 50.328V44.718H7.81C10.384 44.718 11.968 45.29 11.968 47.534C11.968 49.932 10.406 50.328 7.81 50.328H3.586ZM3.586 43.134V38.118H6.908C9.35 38.118 10.846 38.272 10.846 40.626C10.846 42.804 9.328 43.134 6.908 43.134H3.586ZM15.4182 52H17.4862L19.5102 46.06H25.4942L27.4962 52H29.5862L24.3062 36.49H20.7202L15.4182 52ZM20.0822 44.344L22.5022 37.238L24.9002 44.344H20.0822ZM43.9648 47.864C43.9648 45.818 42.7328 44.366 40.2248 43.728L35.9348 42.65C34.2408 42.21 33.5808 41.374 33.5808 40.274C33.5808 38.69 34.7908 37.92 37.0568 37.92C39.9828 37.92 41.4568 39.152 41.4568 41.616H43.5028C43.5028 38.272 41.2808 36.248 37.0568 36.248C33.4928 36.248 31.5568 37.678 31.5568 40.362C31.5568 42.21 32.5688 43.618 35.0108 44.256L39.3448 45.378C41.1488 45.84 41.9408 46.764 41.9408 47.974C41.9408 49.69 40.7528 50.548 38.0688 50.548C34.6368 50.548 32.8548 49.14 32.8548 46.17H30.8308C30.8308 50.064 33.3168 52.242 38.0248 52.242C42.1608 52.242 43.9648 50.636 43.9648 47.864ZM46.4649 52H57.2449V50.284H48.4669V45.07H56.1449V43.398H48.4669V38.206H57.2449V36.49H46.4649V52ZM59.8926 52H64.8866C68.7146 52 72.7406 50.922 72.7406 44.234C72.7406 37.568 68.7146 36.49 64.8866 36.49H59.8926V52ZM61.8946 50.284V38.206H64.8866C67.6146 38.206 70.7386 38.646 70.7386 44.234C70.7386 49.844 67.6366 50.284 64.8866 50.284H61.8946ZM82.5529 36.49V38.206H86.0289V50.284H82.5529V52H91.4849V50.284H88.0089V38.206H91.4849V36.49H82.5529ZM94.4395 52H96.4415V37.194L104.339 52H108.035V36.49H106.055V51.296L98.1355 36.49H94.4395V52ZM117.735 36.49V38.206H123.081V52H125.083V38.206H130.407V36.49H117.735ZM132.746 36.49V52H134.748V45.224H143.592V52H145.594V36.49H143.592V43.486H134.748V36.49H132.746ZM148.752 52H159.532V50.284H150.754V45.07H158.432V43.398H150.754V38.206H159.532V36.49H148.752V52ZM169.045 46.236C169.045 50.108 171.003 52.242 175.271 52.242C179.539 52.242 181.541 50.108 181.541 46.236V36.49H179.539V45.818C179.539 48.92 178.505 50.504 175.271 50.504C172.037 50.504 171.047 48.92 171.047 45.818V36.49H169.045V46.236ZM184.502 52H186.504V37.194L194.402 52H198.098V36.49H196.118V51.296L188.198 36.49H184.502V52ZM201.039 36.49V38.206H204.515V50.284H201.039V52H209.971V50.284H206.495V38.206H209.971V36.49H201.039ZM212.244 36.49V38.206H217.59V52H219.592V38.206H224.916V36.49H212.244ZM227.256 52H238.036V50.284H229.258V45.07H236.936V43.398H229.258V38.206H238.036V36.49H227.256V52ZM240.684 52H245.678C249.506 52 253.532 50.922 253.532 44.234C253.532 37.568 249.506 36.49 245.678 36.49H240.684V52ZM242.686 50.284V38.206H245.678C248.406 38.206 251.53 38.646 251.53 44.234C251.53 49.844 248.428 50.284 245.678 50.284H242.686ZM263.586 52H265.588V44.982L273.046 52H275.84L267.414 44.058L275.774 36.49H273.112L265.588 43.332V36.49H263.586V52ZM277.889 36.49V38.206H281.365V50.284H277.889V52H286.821V50.284H283.345V38.206H286.821V36.49H277.889ZM289.775 52H291.777V37.194L299.675 52H303.371V36.49H301.391V51.296L293.471 36.49H289.775V52ZM313.199 52.242C316.851 52.242 318.303 50.24 318.743 48.898V52H320.745V44.96C320.745 44.102 320.305 43.662 319.359 43.662H312.693V45.202H318.699C318.809 48.656 317.005 50.526 313.595 50.526C309.701 50.526 308.249 47.776 308.249 44.432C308.249 40.56 310.141 37.964 313.683 37.964C316.345 37.964 318.039 39.46 318.391 42.034H320.415C319.909 38.448 317.379 36.248 313.617 36.248C308.931 36.248 306.225 39.504 306.225 44.388C306.225 48.854 308.491 52.242 313.199 52.242ZM323.957 52H328.951C332.779 52 336.805 50.922 336.805 44.234C336.805 37.568 332.779 36.49 328.951 36.49H323.957V52ZM325.959 50.284V38.206H328.951C331.679 38.206 334.803 38.646 334.803 44.234C334.803 49.844 331.701 50.284 328.951 50.284H325.959ZM339.526 44.234C339.526 48.788 342.254 52.242 346.852 52.242C351.45 52.242 354.156 48.788 354.156 44.234C354.156 39.702 351.45 36.248 346.852 36.248C342.254 36.248 339.526 39.702 339.526 44.234ZM341.55 44.234C341.55 40.604 343.288 37.986 346.852 37.986C350.416 37.986 352.154 40.604 352.154 44.234C352.154 47.886 350.416 50.504 346.852 50.504C343.288 50.504 341.55 47.886 341.55 44.234ZM357.022 52H359.024V37.304L363.82 52H367.032L371.806 37.304V52H373.808V36.49H370.156L365.448 51.274L360.74 36.49H357.022V52Z" fill="white"/>
</svg>
